<svg width="21" height="22" viewBox="0 0 21 22" fill="none" xmlns="http://www.w3.org/2000/svg">
<mask id="mask0_1139_15127" style="mask-type:alpha" maskUnits="userSpaceOnUse" x="0" y="0" width="21" height="22">
<rect x="0.283203" y="0.714233" width="20.5714" height="20.5714" fill="#FCFCFC"/>
</mask>
<g mask="url(#mask0_1139_15127)">
<path d="M8.40287 13.5758L15.9194 6.67282C16.0968 6.50992 16.3038 6.42847 16.5403 6.42847C16.7768 6.42847 16.9837 6.50992 17.1611 6.67282C17.3385 6.83572 17.4272 7.02917 17.4272 7.25316C17.4272 7.47715 17.3385 7.67059 17.1611 7.83349L9.02371 15.327C8.84633 15.4899 8.63938 15.5713 8.40287 15.5713C8.16636 15.5713 7.95942 15.4899 7.78203 15.327L3.96832 11.8246C3.79094 11.6617 3.70594 11.4682 3.71333 11.2442C3.72072 11.0203 3.81311 10.8268 3.99049 10.6639C4.16788 10.501 4.37852 10.4196 4.62242 10.4196C4.86632 10.4196 5.07696 10.501 5.25434 10.6639L8.40287 13.5758Z" fill="#FCFCFC"/>
</g>
</svg>
