<svg width="22" height="22" viewBox="0 0 22 22" fill="none" xmlns="http://www.w3.org/2000/svg">
<mask id="mask0_2039_8513" style="mask-type:alpha" maskUnits="userSpaceOnUse" x="0" y="0" width="22" height="22">
<rect x="0.783203" y="0.714355" width="20.5714" height="20.5714" fill="#FCFCFC"/>
</mask>
<g mask="url(#mask0_2039_8513)">
<path d="M8.90287 13.5758L16.4194 6.67282C16.5968 6.50992 16.8038 6.42847 17.0403 6.42847C17.2768 6.42847 17.4837 6.50992 17.6611 6.67282C17.8385 6.83572 17.9272 7.02917 17.9272 7.25316C17.9272 7.47715 17.8385 7.67059 17.6611 7.83349L9.52371 15.327C9.34633 15.4899 9.13938 15.5713 8.90287 15.5713C8.66636 15.5713 8.45942 15.4899 8.28203 15.327L4.46832 11.8246C4.29094 11.6617 4.20594 11.4682 4.21333 11.2442C4.22072 11.0203 4.31311 10.8268 4.49049 10.6639C4.66788 10.501 4.87852 10.4196 5.12242 10.4196C5.36632 10.4196 5.57696 10.501 5.75434 10.6639L8.90287 13.5758Z" fill="#BDBDBD"/>
</g>
</svg>
