<svg width="29" height="28" viewBox="0 0 29 28" fill="none" xmlns="http://www.w3.org/2000/svg">
<path d="M21.3447 0.0469174C25.2964 0.0603823 28.5 3.27487 28.5 7.2266C28.4999 10.4242 26.402 13.1232 23.5078 14.0303C26.4021 14.9571 28.5 17.6715 28.5 20.8692C28.4998 24.8208 25.2963 28.0135 21.3447 28L7.65527 27.9532C3.70356 27.9397 0.500002 24.7252 0.5 20.7735C0.5 17.5761 2.59734 14.8761 5.49121 13.9688C2.59748 13.0417 0.5 10.3282 0.5 7.1309C0.500064 3.17922 3.7036 -0.0134223 7.65527 4.24338e-05L21.3447 0.0469174Z" fill="#989898"/>
<mask id="mask0_1174_6171" style="mask-type:alpha" maskUnits="userSpaceOnUse" x="5" y="4" width="21" height="20">
<rect x="5.16406" y="4" width="20" height="20" fill="#FCFCFC"/>
</mask>
<g mask="url(#mask0_1174_6171)">
<path d="M13.0577 16.5042L20.3655 9.79298C20.538 9.63461 20.7392 9.55542 20.9691 9.55542C21.199 9.55542 21.4002 9.63461 21.5727 9.79298C21.7452 9.95136 21.8314 10.1394 21.8314 10.3572C21.8314 10.575 21.7452 10.763 21.5727 10.9214L13.6613 18.2067C13.4889 18.3651 13.2877 18.4443 13.0577 18.4443C12.8278 18.4443 12.6266 18.3651 12.4542 18.2067L8.74638 14.8016C8.57393 14.6433 8.49129 14.4552 8.49848 14.2374C8.50566 14.0197 8.59548 13.8316 8.76794 13.6732C8.94039 13.5148 9.14518 13.4356 9.38231 13.4356C9.61943 13.4356 9.82422 13.5148 9.99668 13.6732L13.0577 16.5042Z" fill="#FCFCFC"/>
</g>
</svg>
