<svg width="19" height="15" viewBox="0 0 19 15" fill="none" xmlns="http://www.w3.org/2000/svg">
<path d="M1.40137 2.16443C1.11803 2.16443 0.880534 2.0686 0.688867 1.87693C0.497201 1.68526 0.401367 1.44776 0.401367 1.16443C0.401367 0.881095 0.497201 0.643595 0.688867 0.451929C0.880534 0.260262 1.11803 0.164429 1.40137 0.164429H17.4014C17.6847 0.164429 17.9222 0.260262 18.1139 0.451929C18.3055 0.643595 18.4014 0.881095 18.4014 1.16443C18.4014 1.44776 18.3055 1.68526 18.1139 1.87693C17.9222 2.0686 17.6847 2.16443 17.4014 2.16443H1.40137ZM1.40137 14.1644C1.11803 14.1644 0.880534 14.0686 0.688867 13.8769C0.497201 13.6853 0.401367 13.4478 0.401367 13.1644C0.401367 12.8811 0.497201 12.6436 0.688867 12.4519C0.880534 12.2603 1.11803 12.1644 1.40137 12.1644H17.4014C17.6847 12.1644 17.9222 12.2603 18.1139 12.4519C18.3055 12.6436 18.4014 12.8811 18.4014 13.1644C18.4014 13.4478 18.3055 13.6853 18.1139 13.8769C17.9222 14.0686 17.6847 14.1644 17.4014 14.1644H1.40137ZM1.40137 8.16443C1.11803 8.16443 0.880534 8.0686 0.688867 7.87693C0.497201 7.68526 0.401367 7.44776 0.401367 7.16443C0.401367 6.8811 0.497201 6.6436 0.688867 6.45193C0.880534 6.26026 1.11803 6.16443 1.40137 6.16443H17.4014C17.6847 6.16443 17.9222 6.26026 18.1139 6.45193C18.3055 6.6436 18.4014 6.8811 18.4014 7.16443C18.4014 7.44776 18.3055 7.68526 18.1139 7.87693C17.9222 8.0686 17.6847 8.16443 17.4014 8.16443H1.40137Z" fill="#989898"/>
</svg>
