<svg width="24" height="24" viewBox="0 0 24 24" fill="none" xmlns="http://www.w3.org/2000/svg">
<mask id="mask0_1682_33001" style="mask-type:alpha" maskUnits="userSpaceOnUse" x="0" y="0" width="24" height="24">
<rect width="24" height="24" fill="#D9D9D9"/>
</mask>
<g mask="url(#mask0_1682_33001)">
<path d="M10.8008 12L14.7008 15.9C14.8841 16.0834 14.9758 16.3167 14.9758 16.6C14.9758 16.8834 14.8841 17.1167 14.7008 17.3C14.5174 17.4834 14.2841 17.575 14.0008 17.575C13.7174 17.575 13.4841 17.4834 13.3008 17.3L8.70078 12.7C8.60078 12.6 8.52995 12.4917 8.48828 12.375C8.44661 12.2584 8.42578 12.1334 8.42578 12C8.42578 11.8667 8.44661 11.7417 8.48828 11.625C8.52995 11.5084 8.60078 11.4 8.70078 11.3L13.3008 6.70005C13.4841 6.51672 13.7174 6.42505 14.0008 6.42505C14.2841 6.42505 14.5174 6.51672 14.7008 6.70005C14.8841 6.88338 14.9758 7.11672 14.9758 7.40005C14.9758 7.68338 14.8841 7.91672 14.7008 8.10005L10.8008 12Z" fill="#7C7C7C"/>
</g>
</svg>
