<svg width="25" height="24" viewBox="0 0 25 24" fill="none" xmlns="http://www.w3.org/2000/svg">
<g clip-path="url(#clip0_1174_8314)">
<path d="M24.5001 7.86536C24.5001 7.21856 23.9889 6.69476 23.3589 6.69476C22.7289 6.69476 22.2171 7.21856 22.2171 7.86536V10.9044H21.9237V6.08996C21.9237 5.45876 21.4125 4.94636 20.7819 4.94636C20.1513 4.94636 19.6407 5.45816 19.6407 6.08996V10.9044H19.3473V5.33936C19.3473 4.69496 18.8361 4.17236 18.2055 4.17236C17.5749 4.17236 17.0643 4.69496 17.0643 5.33936V10.9044H16.7715V6.46616C16.7715 5.82176 16.2603 5.29916 15.6297 5.29916C14.9991 5.29916 14.4879 5.82176 14.4879 6.46616V6.46736V13.7646H14.7363V14.058H12.9609C12.9609 17.2446 15.5439 19.827 18.7299 19.827C21.9159 19.827 24.4989 17.244 24.4989 14.058V13.7646V7.86476L24.5001 7.86536Z" fill="#FFC7A1"/>
<path d="M15.6133 11.8645V13.8565C16.7317 14.1577 17.6659 14.8987 18.2311 15.8785C17.9353 14.6677 17.1373 13.6543 16.0621 13.0837V11.8651C16.0621 11.1325 15.4687 10.5391 14.7361 10.5391C14.6593 10.5391 14.5849 10.5493 14.5117 10.5619C15.1369 10.6687 15.6133 11.2093 15.6133 11.8645Z" fill="#F38D3E"/>
<path d="M18.2307 15.8783C17.6655 14.8985 16.7313 14.1575 15.6129 13.8563V11.8643C15.6129 11.2091 15.1365 10.6679 14.5113 10.5611C14.4381 10.5485 14.3637 10.5383 14.2869 10.5383C13.5543 10.5383 12.9609 11.1323 12.9609 11.8643V14.0579L14.4879 14.7095V15.3317L17.4189 18.0257H18.8103C18.8103 17.2415 18.5955 16.5113 18.2307 15.8777V15.8783Z" fill="#FFC7A1"/>
<path d="M6.79414 6.50636C7.42474 6.50636 7.93594 5.98388 7.93594 5.33936C7.93594 4.69485 7.42474 4.17236 6.79414 4.17236C6.16355 4.17236 5.65234 4.69485 5.65234 5.33936C5.65234 5.98388 6.16355 6.50636 6.79414 6.50636Z" fill="#FFC7A1"/>
<path d="M10.2632 14.0586V13.7652H10.5116V6.46802C10.5116 6.46802 10.5116 6.46742 10.5116 6.46682C10.5116 5.82242 10.0004 5.29982 9.3698 5.29982C8.7392 5.29982 8.228 5.82242 8.228 6.46682V10.905H7.9352V5.34002H5.6522V10.905H5.3588V6.09062C5.3588 5.45942 4.8476 4.94702 4.2176 4.94702C3.5876 4.94702 3.0758 5.45882 3.0758 6.09062V10.905H2.7824V7.86602C2.7824 7.21922 2.2712 6.69542 1.6406 6.69542C1.01 6.69542 0.5 7.21862 0.5 7.86542V13.7652V14.0586C0.5 17.2446 3.083 19.8276 6.269 19.8276C9.455 19.8276 12.038 17.2446 12.038 14.0586H10.2632Z" fill="#FFC7A1"/>
<path d="M9.38733 13.8563V11.8643C9.38733 11.2091 9.86373 10.6679 10.4889 10.5611C10.4157 10.5485 10.3413 10.5383 10.2645 10.5383C9.53193 10.5383 8.93853 11.1323 8.93853 11.8643V13.0829C7.86333 13.6535 7.06533 14.6669 6.76953 15.8777C7.33473 14.8979 8.26893 14.1575 9.38733 13.8563Z" fill="#F38D3E"/>
<path d="M10.7129 10.5383C10.6361 10.5383 10.5617 10.5485 10.4885 10.5611C9.86325 10.6679 9.38685 11.2091 9.38685 11.8643V13.8563C8.26845 14.1575 7.33425 14.8985 6.76905 15.8783C6.40365 16.5113 6.18945 17.2421 6.18945 18.0263H7.58085L10.5119 15.3323V14.7101L12.0389 14.0585V11.8649C12.0389 11.1323 11.4449 10.5389 10.7129 10.5389V10.5383Z" fill="#FFC7A1"/>
<path d="M2.23435 4.98702C2.70788 4.98702 3.09175 4.60315 3.09175 4.12962C3.09175 3.65609 2.70788 3.27222 2.23435 3.27222C1.76082 3.27222 1.37695 3.65609 1.37695 4.12962C1.37695 4.60315 1.76082 4.98702 2.23435 4.98702Z" fill="#F66570"/>
<path d="M6.50054 3.18601L6.82935 2.15161C6.89771 1.93655 6.77878 1.70679 6.56372 1.63843L5.52933 1.30962C5.31427 1.24126 5.08451 1.36018 5.01615 1.57524L4.68734 2.60964C4.61898 2.8247 4.7379 3.05446 4.95296 3.12282L5.98736 3.45163C6.20242 3.51999 6.43218 3.40107 6.50054 3.18601Z" fill="#3ADE4D"/>
<path d="M12.8359 5.56807C13.3094 5.56807 13.6933 5.1842 13.6933 4.71067C13.6933 4.23714 13.3094 3.85327 12.8359 3.85327C12.3624 3.85327 11.9785 4.23714 11.9785 4.71067C11.9785 5.1842 12.3624 5.56807 12.8359 5.56807Z" fill="#F63A18"/>
<path d="M18.4221 1.16087L17.7795 2.35765C17.6456 2.60697 17.7392 2.91761 17.9885 3.05149L19.1853 3.69411C19.4346 3.82798 19.7453 3.7344 19.8792 3.48508L20.5218 2.28829C20.6557 2.03897 20.5621 1.72833 20.3128 1.59446L19.116 0.951832C18.8667 0.817957 18.556 0.911544 18.4221 1.16087Z" fill="#40B0FA"/>
<path d="M22.5332 4.52095C23.0067 4.52095 23.3906 4.13708 23.3906 3.66355C23.3906 3.19002 23.0067 2.80615 22.5332 2.80615C22.0597 2.80615 21.6758 3.19002 21.6758 3.66355C21.6758 4.13708 22.0597 4.52095 22.5332 4.52095Z" fill="#F66570"/>
</g>
<defs>
<clipPath id="clip0_1174_8314">
<rect width="24" height="24" fill="white" transform="translate(0.5)"/>
</clipPath>
</defs>
</svg>
