<svg width="28" height="28" viewBox="0 0 28 28" fill="none" xmlns="http://www.w3.org/2000/svg">
<circle cx="14" cy="14" r="14" fill="#EFEFEF"/>
<mask id="mask0_1109_6994" style="mask-type:alpha" maskUnits="userSpaceOnUse" x="4" y="4" width="20" height="20">
<rect x="4" y="4" width="20" height="20" fill="#D9D9D9"/>
</mask>
<g mask="url(#mask0_1109_6994)">
<path d="M13.166 14.8334H8.99935C8.76324 14.8334 8.56532 14.7536 8.4056 14.5938C8.24588 14.4341 8.16602 14.2362 8.16602 14.0001C8.16602 13.764 8.24588 13.5661 8.4056 13.4063C8.56532 13.2466 8.76324 13.1667 8.99935 13.1667H13.166V9.00008C13.166 8.76397 13.2459 8.56605 13.4056 8.40633C13.5653 8.24661 13.7632 8.16675 13.9993 8.16675C14.2355 8.16675 14.4334 8.24661 14.5931 8.40633C14.7528 8.56605 14.8327 8.76397 14.8327 9.00008V13.1667H18.9993C19.2355 13.1667 19.4334 13.2466 19.5931 13.4063C19.7528 13.5661 19.8327 13.764 19.8327 14.0001C19.8327 14.2362 19.7528 14.4341 19.5931 14.5938C19.4334 14.7536 19.2355 14.8334 18.9993 14.8334H14.8327V19.0001C14.8327 19.2362 14.7528 19.4341 14.5931 19.5938C14.4334 19.7536 14.2355 19.8334 13.9993 19.8334C13.7632 19.8334 13.5653 19.7536 13.4056 19.5938C13.2459 19.4341 13.166 19.2362 13.166 19.0001V14.8334Z" fill="#989898"/>
</g>
</svg>
