<svg width="23" height="22" viewBox="0 0 23 22" fill="none" xmlns="http://www.w3.org/2000/svg">
<circle cx="11.5" cy="11" r="11" fill="#DCDCDC"/>
<path d="M11.0684 16.1719C9.01758 16.1719 7.56152 15.0713 7.5 13.4512H9.03125C9.08594 14.3193 9.94727 14.873 11.0547 14.873C12.251 14.873 13.1191 14.2236 13.1191 13.2598C13.1191 12.2822 12.3057 11.585 10.8906 11.5781H10.043V10.3477H10.8906C12.0186 10.3545 12.8047 9.72559 12.8047 8.77539C12.8047 7.87305 12.1279 7.25781 11.082 7.25781C10.0908 7.25781 9.20215 7.81152 9.16797 8.70703H7.71875C7.75977 7.09375 9.25 6 11.0957 6C13.0439 6 14.2676 7.23047 14.2539 8.69336C14.2676 9.82129 13.5703 10.6279 12.5039 10.8945V10.9629C13.8574 11.1543 14.6436 12.0635 14.6367 13.3145C14.6436 14.9619 13.1191 16.1719 11.0684 16.1719Z" fill="#989898"/>
</svg>
