<svg width="86" height="86" viewBox="0 0 86 86" fill="none" xmlns="http://www.w3.org/2000/svg">
<circle cx="17.0548" cy="11.7357" r="2.58994" fill="#8E8E8E"/>
<circle cx="37.127" cy="11.7357" r="2.58994" fill="#8E8E8E"/>
<circle cx="57.1993" cy="11.7357" r="2.58994" fill="#8E8E8E"/>
<path d="M46.182 37.5845C63.3465 37.5845 77.262 45.5563 77.2621 55.3902C77.2621 64.463 65.4174 71.95 50.1042 73.0546C46.1208 78.896 37.8882 82.9087 28.3763 82.9087C14.9668 82.9086 4.09604 74.9366 4.0957 65.103C4.0957 58.3125 9.27969 52.4103 16.9032 49.4072C21.1936 42.517 32.6819 37.5846 46.182 37.5845Z" fill="#666666"/>
<path d="M51.3631 61.8952C51.3631 71.9079 40.6372 80.0248 27.4061 80.0248C14.1751 80.0248 3.44922 71.9079 3.44922 61.8952C3.44922 51.8825 14.1751 43.7656 27.4061 43.7656C40.6372 43.7656 51.3631 51.8825 51.3631 61.8952Z" fill="#D3D3D3"/>
<mask id="mask0_1109_6732" style="mask-type:alpha" maskUnits="userSpaceOnUse" x="2" y="41" width="51" height="38">
<path d="M52.6581 59.9526C52.6581 70.3229 41.3524 78.7296 27.4062 78.7296C13.46 78.7296 2.1543 70.3229 2.1543 59.9526C2.1543 49.5823 13.46 41.1755 27.4062 41.1755C41.3524 41.1755 52.6581 49.5823 52.6581 59.9526Z" fill="#EDEDED"/>
</mask>
<g mask="url(#mask0_1109_6732)">
<path d="M52.6581 59.9526C52.6581 70.3229 41.3524 78.7296 27.4062 78.7296C13.46 78.7296 2.1543 70.3229 2.1543 59.9526C2.1543 49.5823 13.46 41.1755 27.4062 41.1755C41.3524 41.1755 52.6581 49.5823 52.6581 59.9526Z" fill="#EDEDED"/>
<path d="M13.8086 29.8147H71.4347V85.4984H13.8086V29.8147Z" fill="#E6E6E6"/>
</g>
<path d="M2.1543 48.2979H52.6581V59.9526H2.1543V48.2979Z" fill="#EDEDED"/>
<path d="M52.6581 48.298C52.6581 58.6683 41.3524 67.0751 27.4062 67.0751C13.46 67.0751 2.1543 58.6683 2.1543 48.298C2.1543 37.9278 13.46 29.521 27.4062 29.521C41.3524 29.521 52.6581 37.9278 52.6581 48.298Z" fill="#EDEDED"/>
<path d="M51.3631 48.298C51.3631 58.3107 40.6372 66.4276 27.4061 66.4276C14.1751 66.4276 3.44922 58.3107 3.44922 48.298C3.44922 38.2853 14.1751 30.1685 27.4061 30.1685C40.6372 30.1685 51.3631 38.2853 51.3631 48.298Z" fill="#DDDDDD"/>
<path d="M41.002 63.1602H39.707L42.6207 61.5415L51.038 66.3976C50.261 69.2466 44.8869 74.1675 41.9732 75.4624L41.6495 63.8077L41.002 63.1602Z" fill="#ADADAD"/>
<mask id="mask1_1109_6732" style="mask-type:alpha" maskUnits="userSpaceOnUse" x="4" y="30" width="47" height="36">
<path d="M50.7146 48.298C50.7146 57.9531 40.2786 65.7801 27.4051 65.7801C14.5317 65.7801 4.0957 57.9531 4.0957 48.298C4.0957 38.6429 14.5317 30.8159 27.4051 30.8159C40.2786 30.8159 50.7146 38.6429 50.7146 48.298Z" fill="#EDEDED"/>
</mask>
<g mask="url(#mask1_1109_6732)">
<path d="M50.2829 49.2394C50.2829 58.8945 39.847 66.7215 26.9735 66.7215C14.1001 66.7215 3.66406 58.8945 3.66406 49.2394C3.66406 39.5843 14.1001 31.7573 26.9735 31.7573C39.847 31.7573 50.2829 39.5843 50.2829 49.2394Z" fill="#656565"/>
<path d="M50.7146 60.6002C50.7146 70.2553 40.2786 78.0823 27.4051 78.0823C14.5317 78.0823 4.0957 70.2553 4.0957 60.6002C4.0957 50.9452 14.5317 43.1182 27.4051 43.1182C40.2786 43.1182 50.7146 50.9452 50.7146 60.6002Z" fill="#B8B8B8"/>
</g>
<path d="M74.6827 62.2285C68.6345 70.6524 54.5477 70.8875 43.2191 62.7536C31.8904 54.6198 27.6098 41.1971 33.6581 32.7733C39.7063 24.3494 53.7931 24.1143 65.1217 32.2481C76.4503 40.382 80.731 53.8046 74.6827 62.2285Z" fill="#373737"/>
<path d="M36.6919 28.5745C42.9382 20.6622 56.6731 20.6029 67.7648 28.5667C78.8564 36.5304 83.1904 49.5628 77.6903 58.0108L77.7034 58.021L74.6816 62.2285L74.0787 61.7955C67.0924 66.8497 55.4834 65.9796 45.8624 59.0718C36.241 52.1638 31.7046 41.4415 34.2606 33.206L33.6577 32.773L36.6786 28.5652L36.6919 28.5745Z" fill="#464646"/>
</svg>
