<svg width="25" height="24" viewBox="0 0 25 24" fill="none" xmlns="http://www.w3.org/2000/svg">
<mask id="mask0_1109_5360" style="mask-type:alpha" maskUnits="userSpaceOnUse" x="0" y="0" width="25" height="24">
<rect x="0.5" width="24" height="24" fill="#D9D9D9"/>
</mask>
<g mask="url(#mask0_1109_5360)">
<path d="M12.25 19H12C9.63333 19 7.625 18.175 5.975 16.525C4.325 14.875 3.5 12.8667 3.5 10.5C3.5 8.13333 4.325 6.125 5.975 4.475C7.625 2.825 9.63333 2 12 2C13.1833 2 14.2875 2.22083 15.3125 2.6625C16.3375 3.10417 17.2375 3.7125 18.0125 4.4875C18.7875 5.2625 19.3958 6.1625 19.8375 7.1875C20.2792 8.2125 20.5 9.31667 20.5 10.5C20.5 12.7333 19.8708 14.8083 18.6125 16.725C17.3542 18.6417 15.7667 20.1417 13.85 21.225C13.6833 21.3083 13.5167 21.3542 13.35 21.3625C13.1833 21.3708 13.0333 21.3333 12.9 21.25C12.7667 21.1667 12.65 21.0583 12.55 20.925C12.45 20.7917 12.3917 20.6333 12.375 20.45L12.25 19ZM11.975 15.975C12.2583 15.975 12.5 15.875 12.7 15.675C12.9 15.475 13 15.2333 13 14.95C13 14.6667 12.9 14.425 12.7 14.225C12.5 14.025 12.2583 13.925 11.975 13.925C11.6917 13.925 11.45 14.025 11.25 14.225C11.05 14.425 10.95 14.6667 10.95 14.95C10.95 15.2333 11.05 15.475 11.25 15.675C11.45 15.875 11.6917 15.975 11.975 15.975ZM9.8 8.375C9.98333 8.45833 10.1667 8.4625 10.35 8.3875C10.5333 8.3125 10.6833 8.19167 10.8 8.025C10.95 7.825 11.125 7.67083 11.325 7.5625C11.525 7.45417 11.75 7.4 12 7.4C12.4 7.4 12.725 7.5125 12.975 7.7375C13.225 7.9625 13.35 8.25 13.35 8.6C13.35 8.81667 13.2875 9.03333 13.1625 9.25C13.0375 9.46667 12.8167 9.73333 12.5 10.05C12.0833 10.4167 11.775 10.7625 11.575 11.0875C11.375 11.4125 11.275 11.7417 11.275 12.075C11.275 12.275 11.3458 12.4458 11.4875 12.5875C11.6292 12.7292 11.8 12.8 12 12.8C12.2 12.8 12.3667 12.725 12.5 12.575C12.6333 12.425 12.7333 12.25 12.8 12.05C12.8833 11.7667 13.0333 11.5083 13.25 11.275C13.4667 11.0417 13.6667 10.8333 13.85 10.65C14.2 10.3 14.4625 9.95 14.6375 9.6C14.8125 9.25 14.9 8.9 14.9 8.55C14.9 7.78333 14.6375 7.16667 14.1125 6.7C13.5875 6.23333 12.8833 6 12 6C11.4667 6 10.975 6.12917 10.525 6.3875C10.075 6.64583 9.70833 7 9.425 7.45C9.325 7.63333 9.3125 7.8125 9.3875 7.9875C9.4625 8.1625 9.6 8.29167 9.8 8.375Z" fill="#989898"/>
</g>
</svg>
