<svg width="20" height="20" viewBox="0 0 20 20" fill="none" xmlns="http://www.w3.org/2000/svg">
<mask id="mask0_2069_8210" style="mask-type:alpha" maskUnits="userSpaceOnUse" x="0" y="0" width="20" height="20">
<rect width="20" height="20" fill="#D9D9D9"/>
</mask>
<g mask="url(#mask0_2069_8210)">
<path d="M4.16732 15.8334C3.93121 15.8334 3.73329 15.7536 3.57357 15.5938C3.41385 15.4341 3.33398 15.2362 3.33398 15.0001C3.33398 14.764 3.41385 14.5661 3.57357 14.4063C3.73329 14.2466 3.93121 14.1667 4.16732 14.1667H5.00065V8.33342C5.00065 7.18064 5.34787 6.15633 6.04232 5.2605C6.73676 4.36466 7.63954 3.77786 8.75065 3.50008V2.91675C8.75065 2.56953 8.87218 2.27439 9.11523 2.03133C9.35829 1.78828 9.65343 1.66675 10.0007 1.66675C10.3479 1.66675 10.643 1.78828 10.8861 2.03133C11.1291 2.27439 11.2507 2.56953 11.2507 2.91675V3.50008C12.3618 3.77786 13.2645 4.36466 13.959 5.2605C14.6534 6.15633 15.0007 7.18064 15.0007 8.33342V14.1667H15.834C16.0701 14.1667 16.268 14.2466 16.4277 14.4063C16.5875 14.5661 16.6673 14.764 16.6673 15.0001C16.6673 15.2362 16.5875 15.4341 16.4277 15.5938C16.268 15.7536 16.0701 15.8334 15.834 15.8334H4.16732ZM10.0007 18.3334C9.54232 18.3334 9.14996 18.1702 8.82357 17.8438C8.49718 17.5174 8.33398 17.1251 8.33398 16.6667H11.6673C11.6673 17.1251 11.5041 17.5174 11.1777 17.8438C10.8513 18.1702 10.459 18.3334 10.0007 18.3334Z" fill="#656565"/>
</g>
</svg>
