<svg width="21" height="25" viewBox="0 0 21 25" fill="none" xmlns="http://www.w3.org/2000/svg">
<g clip-path="url(#clip0_678_4417)">
<path d="M19.8735 8.52941C18.2349 9.55882 17.2229 11.3235 17.2229 13.2843C17.2229 15.4902 18.5241 17.5 20.5 18.3333C20.1145 19.6078 19.5361 20.7843 18.8133 21.8627C17.753 23.3824 16.6446 24.951 15.006 24.951C13.3675 24.951 12.8855 23.9706 10.9578 23.9706C9.07831 23.9706 8.40361 25 6.86145 25C5.31928 25 4.25904 23.5784 3.05422 21.8137C1.46386 19.3627 0.548193 16.5196 0.5 13.5294C0.5 8.67647 3.58434 6.07843 6.66867 6.07843C8.30723 6.07843 9.65663 7.15686 10.6687 7.15686C11.6325 7.15686 13.1747 6.02941 15.006 6.02941C16.9337 5.98039 18.7651 6.91176 19.8735 8.52941ZM14.1386 3.97059C14.9578 2.9902 15.3916 1.76471 15.4398 0.490196C15.4398 0.343137 15.4398 0.147059 15.3916 0C13.994 0.147059 12.6928 0.833333 11.7771 1.91176C10.9578 2.84314 10.4759 4.01961 10.4277 5.29412C10.4277 5.44118 10.4277 5.58824 10.4759 5.73529C10.5723 5.73529 10.7169 5.78431 10.8133 5.78431C12.1145 5.68627 13.3193 5 14.1386 3.97059Z" fill="#FCFCFC"/>
</g>
<defs>
<clipPath id="clip0_678_4417">
<rect width="20" height="25" fill="white" transform="translate(0.5)"/>
</clipPath>
</defs>
</svg>
