<svg width="24" height="24" viewBox="0 0 24 24" fill="none" xmlns="http://www.w3.org/2000/svg">
<mask id="mask0_1682_33003" style="mask-type:alpha" maskUnits="userSpaceOnUse" x="0" y="0" width="24" height="24">
<rect width="24" height="24" transform="matrix(1 0 0 -1 0 24)" fill="#D9D9D9"/>
</mask>
<g mask="url(#mask0_1682_33003)">
<path d="M12.6008 12L8.70078 15.9C8.51745 16.0833 8.42578 16.3166 8.42578 16.6C8.42578 16.8833 8.51745 17.1166 8.70078 17.3C8.88411 17.4833 9.11745 17.575 9.40078 17.575C9.68411 17.575 9.91745 17.4833 10.1008 17.3L14.7008 12.7C14.8008 12.6 14.8716 12.4916 14.9133 12.375C14.9549 12.2583 14.9758 12.1333 14.9758 12C14.9758 11.8666 14.9549 11.7416 14.9133 11.625C14.8716 11.5083 14.8008 11.4 14.7008 11.3L10.1008 6.69995C9.91745 6.51662 9.68411 6.42495 9.40078 6.42495C9.11745 6.42495 8.88411 6.51662 8.70078 6.69995C8.51745 6.88328 8.42578 7.11662 8.42578 7.39995C8.42578 7.68328 8.51745 7.91662 8.70078 8.09995L12.6008 12Z" fill="#7C7C7C"/>
</g>
</svg>
