<svg width="86" height="86" viewBox="0 0 86 86" fill="none" xmlns="http://www.w3.org/2000/svg">
<g filter="url(#filter0_d_1109_6667)">
<mask id="mask0_1109_6667" style="mask-type:alpha" maskUnits="userSpaceOnUse" x="9" y="20" width="67" height="59">
<path d="M42.8799 24.2869C59.417 24.2869 73.1154 34.2595 75.5264 47.2742H75.9014V51.2615C75.9016 51.3005 75.9033 51.3396 75.9033 51.3787C75.9033 51.4174 75.9016 51.4562 75.9014 51.4949V52.2H75.8857C75.3564 66.7822 60.7828 78.4705 42.8799 78.4705C24.6422 78.4703 9.85751 66.3408 9.85742 51.3787C9.85742 36.4165 24.6422 24.287 42.8799 24.2869Z" fill="#88BAE1"/>
<mask id="mask1_1109_6667" style="mask-type:alpha" maskUnits="userSpaceOnUse" x="9" y="20" width="67" height="53">
<ellipse cx="42.88" cy="46.4837" rx="33.0226" ry="26.4837" fill="#A2D1F7"/>
</mask>
<g mask="url(#mask1_1109_6667)">
<ellipse cx="42.88" cy="46.1215" rx="33.0226" ry="26.8459" fill="#A2D1F7"/>
<rect width="44.5874" height="5.76709" transform="matrix(0.479178 -0.877718 0.908838 0.417149 31.2246 60.125)" fill="#88BAE1"/>
</g>
</mask>
<g mask="url(#mask0_1109_6667)">
<path d="M42.8799 25.5591C59.4169 25.5591 73.1152 35.2974 75.5264 48.0063H75.9014V51.9009C75.9016 51.9388 75.9033 51.9772 75.9033 52.0151C75.9033 52.0529 75.9016 52.0907 75.9014 52.1284V52.8169H75.8857C75.3564 67.0568 60.7828 78.4702 42.8799 78.4702C24.6424 78.47 9.85769 66.6259 9.85742 52.0151C9.85742 37.4042 24.6422 25.5593 42.8799 25.5591Z" fill="#D26B48"/>
<mask id="mask2_1109_6667" style="mask-type:alpha" maskUnits="userSpaceOnUse" x="9" y="19" width="67" height="54">
<ellipse cx="42.88" cy="45.6065" rx="33.0226" ry="26.408" fill="#A2D1F7"/>
</mask>
<g mask="url(#mask2_1109_6667)">
<g filter="url(#filter1_ii_1109_6667)">
<ellipse cx="42.88" cy="45.6065" rx="33.0226" ry="26.408" fill="#FB9876"/>
</g>
<mask id="mask3_1109_6667" style="mask-type:alpha" maskUnits="userSpaceOnUse" x="14" y="28" width="57" height="34">
<path d="M14.7141 55.2097C32.6548 48.0382 49.6056 39.3355 65.3294 29.2235L66.9182 28.2017L70.5601 33.2029L68.669 34.4358C53.2375 44.4956 36.8216 53.4483 19.5695 61.2129L14.7141 55.2097Z" fill="#F2845F"/>
</mask>
<g mask="url(#mask3_1109_6667)">
<path d="M14.7138 55.2101C32.655 48.0383 49.6124 39.3443 65.3515 29.2484L66.2449 28.6753L70.5599 33.2033L68.2208 34.7281C53.0872 44.5938 36.9938 53.3801 20.0841 61.0088L17.3054 58.5555L14.7138 55.2101Z" fill="#F58664"/>
<path d="M9.93401 50.8122C28.2584 43.9153 45.9397 35.4967 62.3148 25.8264L67.1974 29.6935L65.492 30.74C49.4177 40.6046 32.4102 49.3525 14.6116 56.9107L9.93401 50.8122Z" fill="#EA7854"/>
</g>
</g>
<g style="mix-blend-mode:multiply">
<path d="M38.9961 72.0109L40.6165 78.2921L53.2119 84.434C61.4739 82.9068 70.5924 84.434 71.9648 82.5841C72.3206 82.1045 69.2413 75.3843 94.1725 56.4109L95.3287 31.2613L81.3385 23.8911L77.9978 25.2005C77.6616 34.5542 52.1598 63.051 40.6165 69.517L38.9961 72.0109Z" fill="#FB9876" fill-opacity="0.25"/>
</g>
</g>
</g>
<defs>
<filter id="filter0_d_1109_6667" x="0" y="0" width="86" height="90" filterUnits="userSpaceOnUse" color-interpolation-filters="sRGB">
<feFlood flood-opacity="0" result="BackgroundImageFix"/>
<feColorMatrix in="SourceAlpha" type="matrix" values="0 0 0 0 0 0 0 0 0 0 0 0 0 0 0 0 0 0 127 0" result="hardAlpha"/>
<feOffset dy="4"/>
<feComposite in2="hardAlpha" operator="out"/>
<feColorMatrix type="matrix" values="0 0 0 0 0.786067 0 0 0 0 0.786605 0 0 0 0 0.787072 0 0 0 1 0"/>
<feBlend mode="normal" in2="BackgroundImageFix" result="effect1_dropShadow_1109_6667"/>
<feBlend mode="normal" in="SourceGraphic" in2="effect1_dropShadow_1109_6667" result="shape"/>
</filter>
<filter id="filter1_ii_1109_6667" x="9.85742" y="17.7879" width="66.0449" height="54.2268" filterUnits="userSpaceOnUse" color-interpolation-filters="sRGB">
<feFlood flood-opacity="0" result="BackgroundImageFix"/>
<feBlend mode="normal" in="SourceGraphic" in2="BackgroundImageFix" result="shape"/>
<feColorMatrix in="SourceAlpha" type="matrix" values="0 0 0 0 0 0 0 0 0 0 0 0 0 0 0 0 0 0 127 0" result="hardAlpha"/>
<feMorphology radius="1.41062" operator="dilate" in="SourceAlpha" result="effect1_innerShadow_1109_6667"/>
<feOffset dy="-4.23185"/>
<feGaussianBlur stdDeviation="1.41062"/>
<feComposite in2="hardAlpha" operator="arithmetic" k2="-1" k3="1"/>
<feColorMatrix type="matrix" values="0 0 0 0 1 0 0 0 0 1 0 0 0 0 1 0 0 0 0.25 0"/>
<feBlend mode="normal" in2="shape" result="effect1_innerShadow_1109_6667"/>
<feColorMatrix in="SourceAlpha" type="matrix" values="0 0 0 0 0 0 0 0 0 0 0 0 0 0 0 0 0 0 127 0" result="hardAlpha"/>
<feMorphology radius="1.41062" operator="erode" in="SourceAlpha" result="effect2_innerShadow_1109_6667"/>
<feOffset dy="-1.41062"/>
<feComposite in2="hardAlpha" operator="arithmetic" k2="-1" k3="1"/>
<feColorMatrix type="matrix" values="0 0 0 0 1 0 0 0 0 0.686993 0 0 0 0 0.579496 0 0 0 1 0"/>
<feBlend mode="normal" in2="effect1_innerShadow_1109_6667" result="effect2_innerShadow_1109_6667"/>
</filter>
</defs>
</svg>
