<svg width="22" height="22" viewBox="0 0 22 22" fill="none" xmlns="http://www.w3.org/2000/svg">
<circle cx="11" cy="11" r="11" fill="#FDC2AB"/>
<path d="M10.5684 16.1719C8.51758 16.1719 7.06152 15.0713 7 13.4512H8.53125C8.58594 14.3193 9.44727 14.873 10.5547 14.873C11.751 14.873 12.6191 14.2236 12.6191 13.2598C12.6191 12.2822 11.8057 11.585 10.3906 11.5781H9.54297V10.3477H10.3906C11.5186 10.3545 12.3047 9.72559 12.3047 8.77539C12.3047 7.87305 11.6279 7.25781 10.582 7.25781C9.59082 7.25781 8.70215 7.81152 8.66797 8.70703H7.21875C7.25977 7.09375 8.75 6 10.5957 6C12.5439 6 13.7676 7.23047 13.7539 8.69336C13.7676 9.82129 13.0703 10.6279 12.0039 10.8945V10.9629C13.3574 11.1543 14.1436 12.0635 14.1367 13.3145C14.1436 14.9619 12.6191 16.1719 10.5684 16.1719Z" fill="#F63A18"/>
</svg>
